<svg xmlns="http://www.w3.org/2000/svg" xmlns:xlink="http://www.w3.org/1999/xlink" width="243" zoomAndPan="magnify" viewBox="0 0 182.25 80.249996" height="107" preserveAspectRatio="xMidYMid meet" version="1.0"><defs><g/><clipPath id="ae8cad7f68"><path d="M 0.472656 0 L 181.035156 0 L 181.035156 79.507812 L 0.472656 79.507812 Z M 0.472656 0 " clip-rule="nonzero"/></clipPath></defs><g clip-path="url(#ae8cad7f68)"><path fill="#ffffff" d="M 0.472656 0 L 181.035156 0 L 181.035156 79.507812 L 0.472656 79.507812 Z M 0.472656 0 " fill-opacity="1" fill-rule="nonzero"/><path fill="#ffffff" d="M 0.472656 0 L 181.035156 0 L 181.035156 79.507812 L 0.472656 79.507812 Z M 0.472656 0 " fill-opacity="1" fill-rule="nonzero"/></g><g fill="#16b3ff" fill-opacity="1"><g transform="translate(75.398235, 56.297824)"><g><path d="M 30.21875 0 L 23.671875 0 L 21.296875 -7.265625 L 9.234375 -7.265625 L 6.875 0 L 0.46875 0 L 11.34375 -31.484375 L 19.34375 -31.484375 Z M 14.96875 -24.921875 L 10.921875 -12.484375 L 19.578125 -12.484375 L 15.5 -24.921875 Z M 14.96875 -24.921875 "/></g></g></g></svg>